<svg width="54" height="59" viewBox="0 0 54 59" fill="none" xmlns="http://www.w3.org/2000/svg">
<path d="M50 20.1477V18.1477" stroke="#0093D0" stroke-width="2" stroke-miterlimit="10"/>
<path d="M14 27.1477C6.82 27.1477 1 21.3277 1 14.1477C1 6.96771 6.82 1.14771 14 1.14771C16.541 1.14771 18.903 1.88771 20.906 3.14771H28C28.552 3.14771 29 3.59571 29 4.14771C29 4.28771 28.971 4.41971 28.919 4.54071L26.432 10.3457C26.799 11.5487 27 12.8247 27 14.1477C27 21.3277 21.18 27.1477 14 27.1477V27.1477Z" stroke="#0093D0" stroke-width="2" stroke-miterlimit="10"/>
<path d="M18 14.1477C18 16.3567 16.209 18.1477 14 18.1477C11.791 18.1477 10 16.3567 10 14.1477V8.14771H18V14.1477Z" stroke="#0093D0" stroke-width="2" stroke-miterlimit="10"/>
<path d="M14 18.1477V22.1477" stroke="#0093D0" stroke-width="2" stroke-miterlimit="10"/>
<path d="M10 22.1477H18" stroke="#0093D0" stroke-width="2" stroke-miterlimit="10"/>
<path d="M10 10.1477H6V12.1477C6 14.3567 7.791 16.1477 10 16.1477H10.536" stroke="#0093D0" stroke-width="2" stroke-miterlimit="10"/>
<path d="M17.9999 10.1477H21.9999V12.1477C21.9999 14.3567 20.2089 16.1477 17.9999 16.1477H17.4639" stroke="#0093D0" stroke-width="2" stroke-miterlimit="10"/>
<path d="M29 40.1477V43.1477" stroke="#0093D0" stroke-width="2" stroke-miterlimit="10"/>
<path d="M29 51.1477V54.1477" stroke="#0093D0" stroke-width="2" stroke-miterlimit="10"/>
<path d="M26 49.1477C26 50.2527 27.343 51.1477 29 51.1477C30.657 51.1477 32 50.2527 32 49.1477C32 48.0427 30.657 47.1477 29 47.1477C27.343 47.1477 26 46.2527 26 45.1477C26 44.0427 27.343 43.1477 29 43.1477C30.657 43.1477 32 44.0427 32 45.1477" stroke="#0093D0" stroke-width="2" stroke-miterlimit="10"/>
<path d="M43 40.1477V43.1477" stroke="#0093D0" stroke-width="2" stroke-miterlimit="10"/>
<path d="M43 51.1477V54.1477" stroke="#0093D0" stroke-width="2" stroke-miterlimit="10"/>
<path d="M40 49.1477C40 50.2527 41.343 51.1477 43 51.1477C44.657 51.1477 46 50.2527 46 49.1477C46 48.0427 44.657 47.1477 43 47.1477C41.343 47.1477 40 46.2527 40 45.1477C40 44.0427 41.343 43.1477 43 43.1477C44.657 43.1477 46 44.0427 46 45.1477" stroke="#0093D0" stroke-width="2" stroke-miterlimit="10"/>
<path d="M15 40.1477V43.1477" stroke="#0093D0" stroke-width="2" stroke-miterlimit="10"/>
<path d="M15 51.1477V54.1477" stroke="#0093D0" stroke-width="2" stroke-miterlimit="10"/>
<path d="M12 49.1477C12 50.2527 13.343 51.1477 15 51.1477C16.657 51.1477 18 50.2527 18 49.1477C18 48.0427 16.657 47.1477 15 47.1477C13.343 47.1477 12 46.2527 12 45.1477C12 44.0427 13.343 43.1477 15 43.1477C16.657 43.1477 18 44.0427 18 45.1477" stroke="#0093D0" stroke-width="2" stroke-miterlimit="10"/>
<path d="M22 31.1477V44.1477" stroke="#0093D0" stroke-width="2" stroke-miterlimit="10"/>
<path d="M22 57.1477V50.1477" stroke="#0093D0" stroke-width="2" stroke-miterlimit="10"/>
<path d="M22 48.1477V46.1477" stroke="#0093D0" stroke-width="2" stroke-miterlimit="10"/>
<path d="M8 37.1477H50" stroke="#0093D0" stroke-width="2" stroke-miterlimit="10"/>
<path d="M50 22.1477V56.1477C50 56.6997 49.552 57.1477 49 57.1477H9C8.448 57.1477 8 56.6997 8 56.1477V33.1477C8 32.6497 8.366 32.2277 8.859 32.1577L22 31.1477L36 26.1477L53 8.14771" stroke="#0093D0" stroke-width="2" stroke-miterlimit="10"/>
<path d="M30.186 24.1297L33.751 22.7037L41.495 14.5037" stroke="#0093D0" stroke-width="2" stroke-miterlimit="10"/>
<path d="M26.167 25.4117L27.837 24.8157" stroke="#0093D0" stroke-width="2" stroke-miterlimit="10"/>
<path d="M36 57.1477V26.1477" stroke="#0093D0" stroke-width="2" stroke-miterlimit="10"/>
<path d="M40 34.1477V32.1477" stroke="#0093D0" stroke-width="2" stroke-miterlimit="10"/>
<path d="M40 30.1477V26.1477" stroke="#0093D0" stroke-width="2" stroke-miterlimit="10"/>
<path d="M47 8.14771H53V14.1477" stroke="#0093D0" stroke-width="2" stroke-miterlimit="10"/>
</svg>
