<svg width="210" height="41" viewBox="0 0 210 41" fill="none" xmlns="http://www.w3.org/2000/svg">
<g clip-path="url(#clip0_1_20)">
<path d="M164.565 3.05677V37.7579C164.565 37.8382 164.597 37.9152 164.654 37.9719C164.711 38.0287 164.789 38.0606 164.869 38.0606C164.95 38.0606 165.027 38.0287 165.084 37.9719C165.141 37.9152 165.173 37.8382 165.173 37.7579V3.05677C165.173 2.97651 165.141 2.89954 165.084 2.84278C165.027 2.78603 164.95 2.75415 164.869 2.75415C164.789 2.75415 164.711 2.78603 164.654 2.84278C164.597 2.89954 164.565 2.97651 164.565 3.05677Z" fill="black"/>
<path d="M75.7846 6.73058C75.736 3.14759 71.791 4.13109 71.791 3.05074C71.791 2.60892 71.8913 2.51208 72.2834 2.51208C74.107 2.51208 75.8819 2.70879 77.7055 2.70879C79.2251 2.70879 80.763 2.51208 82.2887 2.51208C83.0789 2.51208 83.2248 2.60893 83.2248 3.00233C83.2248 4.17951 79.6749 3.05074 79.6749 6.7336V33.0856C79.6749 36.4143 84.0606 35.2947 84.0606 36.7654C84.0606 37.1073 83.9117 37.2556 83.0759 37.2556C81.9422 37.2556 79.8239 37.0619 77.7024 37.0619C74.6966 37.0619 73.6602 37.2556 72.9703 37.2556C72.0828 37.2556 71.9369 37.0105 71.9369 36.5203C71.9369 35.098 75.7816 36.717 75.7816 31.8569L75.7846 6.73058Z" fill="black"/>
<path d="M90.5042 7.75945C90.5042 2.75416 86.4619 4.32474 86.4619 2.99927C86.4619 2.65731 86.857 2.50903 87.1518 2.50903C88.6715 2.50903 90.1091 2.70573 91.5892 2.70573C94.8413 2.70573 98.0477 2.50903 102.284 2.50903C111.007 2.50903 119.584 9.08492 119.584 18.1634C119.584 29.4511 114.211 37.2526 100.558 37.2526C98.0447 37.2526 95.5312 37.0589 93.0177 37.0589C92.5739 37.0589 87.8509 37.2526 87.4983 37.2526C87.1032 37.2526 87.006 37.0589 87.006 36.7623C87.006 35.6336 90.5042 36.8622 90.5042 32.1988V7.75945ZM94.3975 30.1532C94.3975 30.9369 94.2486 33.2913 94.7014 33.7361C96.3275 35.3552 100.075 35.9453 102.3 35.9453C109.29 35.9453 115.952 32.214 115.952 20.8779C115.952 9.98369 108.658 3.80121 99.2908 3.75279C94.6103 3.75279 94.4097 4.53657 94.4097 6.84554L94.3975 30.1532Z" fill="black"/>
<path d="M140.695 2.06726C149.962 2.06726 152.524 5.84696 153.952 5.84696C154.347 5.84696 154.642 5.35672 155.135 5.35672C155.679 5.35672 155.679 6.14353 155.824 9.33009C155.925 11.9326 156.368 13.5486 155.521 13.5486C154.928 13.5486 154.584 12.2746 154.387 11.9326C151.348 6.67915 147.834 3.48956 141.476 3.48956C131.863 3.48956 127.231 9.86875 127.231 18.9957C127.231 27.5356 132.161 36.0754 141.622 36.0754C149.36 36.0754 154.189 31.167 154.931 28.9094C154.968 28.7467 155.054 28.5989 155.177 28.4855C155.3 28.3721 155.455 28.2984 155.621 28.2739C155.751 28.287 155.871 28.351 155.955 28.4519C156.038 28.5529 156.077 28.6826 156.065 28.8126L154.931 33.7211C154.882 33.9147 151.381 37.5976 140.291 37.5976C130.188 37.5976 122.942 30.6767 122.942 20.5179C122.942 10.359 130.297 2.06726 140.695 2.06726Z" fill="black"/>
<path d="M62.2934 8.33142H16.0323C15.4563 9.03937 14.9293 9.78553 14.455 10.5647H0.99392C0.936047 10.5647 0.878741 10.5761 0.825273 10.5981C0.771805 10.6202 0.723223 10.6525 0.682301 10.6933C0.641378 10.734 0.608916 10.7824 0.586769 10.8356C0.564622 10.8889 0.553223 10.9459 0.553223 11.0035C0.553223 11.0612 0.564622 11.1182 0.586769 11.1715C0.608916 11.2247 0.641378 11.2731 0.682301 11.3138C0.723223 11.3546 0.771805 11.3869 0.825273 11.4089C0.878741 11.431 0.936047 11.4423 0.99392 11.4423H49.34C48.9216 10.67 48.4525 9.92597 47.9358 9.21507H62.2965C62.4133 9.21507 62.5254 9.16883 62.6081 9.08654C62.6907 9.00425 62.7372 8.89265 62.7372 8.77627C62.7372 8.65989 62.6907 8.54829 62.6081 8.466C62.5254 8.38371 62.4133 8.33748 62.2965 8.33748L62.2934 8.33142Z" fill="black"/>
<path d="M62.2934 14.063H12.7529C12.4713 14.8326 12.2378 15.6189 12.0539 16.4174H0.99392C0.936047 16.4174 0.878741 16.4287 0.825273 16.4508C0.771805 16.4728 0.723223 16.5051 0.682301 16.5459C0.641378 16.5866 0.608916 16.635 0.586769 16.6882C0.564622 16.7415 0.553223 16.7985 0.553223 16.8562C0.553223 16.9138 0.564622 16.9708 0.586769 17.0241C0.608916 17.0773 0.641378 17.1257 0.682301 17.1664C0.723223 17.2072 0.771805 17.2395 0.825273 17.2615C0.878741 17.2836 0.936047 17.2949 0.99392 17.2949H51.4036C51.2573 16.5001 51.0624 15.7149 50.8201 14.9436H62.2934C62.3513 14.9436 62.4086 14.9323 62.462 14.9102C62.5155 14.8882 62.5641 14.8558 62.605 14.8151C62.6459 14.7743 62.6784 14.726 62.7006 14.6727C62.7227 14.6195 62.7341 14.5624 62.7341 14.5048C62.7341 14.4472 62.7227 14.3901 62.7006 14.3369C62.6784 14.2837 62.6459 14.2353 62.605 14.1945C62.5641 14.1538 62.5155 14.1215 62.462 14.0994C62.4086 14.0774 62.3513 14.066 62.2934 14.066V14.063Z" fill="black"/>
<path d="M62.2934 19.4164H11.6132C11.5767 19.9086 11.5585 20.4059 11.5585 20.9083C11.5585 21.3219 11.5717 21.7324 11.598 22.1399H0.993919C0.877039 22.1399 0.764946 22.1862 0.6823 22.2685C0.599653 22.3507 0.553223 22.4624 0.553223 22.5787C0.553223 22.6951 0.599653 22.8067 0.6823 22.889C0.764946 22.9713 0.877039 23.0175 0.993919 23.0175H51.6194C51.6941 22.3139 51.7316 21.6068 51.7319 20.8992C51.7319 20.6934 51.7319 20.4876 51.7319 20.294H62.3056C62.3634 20.294 62.4208 20.2826 62.4742 20.2606C62.5277 20.2385 62.5763 20.2062 62.6172 20.1655C62.6581 20.1247 62.6906 20.0763 62.7127 20.0231C62.7349 19.9699 62.7463 19.9128 62.7463 19.8552C62.7463 19.7976 62.7349 19.7405 62.7127 19.6873C62.6906 19.634 62.6581 19.5856 62.6172 19.5449C62.5763 19.5042 62.5277 19.4718 62.4742 19.4498C62.4208 19.4277 62.3634 19.4164 62.3056 19.4164H62.2934Z" fill="black"/>
<path d="M62.2934 24.8997H11.9597C12.1653 25.9108 12.4499 26.9044 12.8107 27.8714H0.99392C0.87704 27.8714 0.764948 27.9177 0.682301 28C0.599654 28.0822 0.553223 28.1939 0.553223 28.3102C0.553223 28.4266 0.599654 28.5382 0.682301 28.6205C0.764948 28.7028 0.87704 28.749 0.99392 28.749H50.1271C50.5399 27.7844 50.8753 26.7887 51.1301 25.7713H62.2934C62.4103 25.7713 62.5224 25.725 62.605 25.6427C62.6877 25.5605 62.7341 25.4488 62.7341 25.3325C62.7341 25.2161 62.6877 25.1045 62.605 25.0222C62.5224 24.9399 62.4103 24.8937 62.2934 24.8937V24.8997Z" fill="black"/>
<path d="M62.2934 30.3833H13.9504C14.5684 31.5305 15.2972 32.615 16.1266 33.6213H0.99392C0.936047 33.6213 0.878741 33.6327 0.825273 33.6547C0.771805 33.6768 0.723223 33.7091 0.682301 33.7498C0.641378 33.7906 0.608916 33.839 0.586769 33.8922C0.564622 33.9454 0.553223 34.0025 0.553223 34.0601C0.553223 34.1177 0.564622 34.1748 0.586769 34.228C0.608916 34.2813 0.641378 34.3296 0.682301 34.3704C0.723223 34.4111 0.771805 34.4434 0.825273 34.4655C0.878741 34.4875 0.936047 34.4989 0.99392 34.4989H46.3949C47.312 33.5076 48.1266 32.4268 48.8263 31.273H62.2873C62.4042 31.273 62.5163 31.2268 62.599 31.1445C62.6816 31.0622 62.728 30.9506 62.728 30.8342C62.728 30.7178 62.6816 30.6062 62.599 30.5239C62.5163 30.4416 62.4042 30.3954 62.2873 30.3954L62.2934 30.3833Z" fill="black"/>
<path d="M62.2931 35.8605H32.0187H31.9397H18.3115C21.8103 38.9535 26.2838 40.7332 30.9598 40.8923C35.6359 41.0515 40.221 39.58 43.9236 36.7321H62.2962C62.354 36.7321 62.4114 36.7207 62.4648 36.6987C62.5183 36.6766 62.5669 36.6443 62.6078 36.6036C62.6487 36.5628 62.6812 36.5144 62.7033 36.4612C62.7255 36.408 62.7369 36.3509 62.7369 36.2933C62.7369 36.2357 62.7255 36.1786 62.7033 36.1254C62.6812 36.0721 62.6487 36.0238 62.6078 35.983C62.5669 35.9423 62.5183 35.9099 62.4648 35.8879C62.4114 35.8658 62.354 35.8545 62.2962 35.8545L62.2931 35.8605Z" fill="black"/>
<path d="M0.99392 5.96217H31.2714H31.3534H44.9786C44.1262 5.20752 43.2112 4.5262 42.2432 3.92555H62.3025C62.4194 3.92555 62.5315 3.87932 62.6142 3.79703C62.6968 3.71474 62.7432 3.60313 62.7432 3.48676C62.7432 3.37038 62.6968 3.25877 62.6142 3.17648C62.5315 3.09419 62.4194 3.04796 62.3025 3.04796H40.6658C37.2826 1.35639 33.4882 0.650922 29.7199 1.01285C25.9515 1.37478 22.3626 2.78938 19.3664 5.09366H0.99392C0.936047 5.09366 0.878741 5.10501 0.825273 5.12706C0.771805 5.14911 0.723223 5.18143 0.682301 5.22218C0.641378 5.26292 0.608916 5.3113 0.586769 5.36453C0.564622 5.41777 0.553223 5.47483 0.553223 5.53245C0.553223 5.59007 0.564622 5.64714 0.586769 5.70037C0.608916 5.75361 0.641378 5.80198 0.682301 5.84272C0.723223 5.88347 0.771805 5.91579 0.825273 5.93785C0.878741 5.9599 0.936047 5.97125 0.99392 5.97125V5.96217Z" fill="black"/>
<path d="M177.27 13.5909H174.288L173.796 14.8437H172.793L175.209 8.79138H176.349L178.765 14.8437H177.762L177.27 13.5909ZM174.553 12.7829H177.005L175.79 9.57818L174.553 12.7829Z" fill="black"/>
<path d="M180.181 10.1955V14.8437H179.27V8.79138H180.209L183.518 13.3306V8.79138H184.43V14.8437H183.546L180.181 10.1955Z" fill="black"/>
<path d="M189.409 13.5909H186.427L185.935 14.8437H184.932L187.348 8.79138H188.488L190.904 14.8437H189.901L189.409 13.5909ZM186.692 12.7829H189.145L187.929 9.57818L186.692 12.7829Z" fill="black"/>
<path d="M191.412 8.78833H192.323V14.0448H195.086V14.8437H191.412V8.78833Z" fill="black"/>
<path d="M196.566 12.3108L194.187 8.78833H195.235L197.022 11.4937L198.791 8.78833H199.849L197.478 12.3108V14.8437H196.566V12.3108Z" fill="black"/>
<path d="M200.229 14.0993L203.493 9.58724H200.229V8.78833H204.669V9.53277L201.399 14.0448H204.742V14.8437H200.229V14.0993Z" fill="black"/>
<path d="M205.468 8.78833H209.553V9.58724H206.38V11.3576H209.489V12.1565H206.38V14.0448H209.553V14.8437H205.468V8.78833Z" fill="black"/>
<path d="M174.908 17.4554H173.021V16.6565H177.692V17.4554H175.814V22.7119H174.902L174.908 17.4554Z" fill="black"/>
<path d="M182.583 20.0034H179.212V22.7088H178.3V16.6565H179.212V19.1985H182.577V16.6565H183.488V22.7088H182.577L182.583 20.0034Z" fill="black"/>
<path d="M184.683 16.6565H188.755V17.4554H185.594V19.2257H188.704V20.0246H185.594V21.913H188.755V22.7119H184.683V16.6565Z" fill="black"/>
<path d="M173.422 24.5245H177.507V25.3234H174.334V27.0938H177.443V27.8927H174.334V30.5799H173.422V24.5245Z" fill="black"/>
<path d="M178.182 24.5245H179.094V28.1741C179.094 29.2091 179.668 29.8718 180.735 29.8718C181.802 29.8718 182.367 29.2091 182.367 28.1741V24.5245H183.279V28.2013C183.279 29.7144 182.431 30.6889 180.726 30.6889C179.021 30.6889 178.164 29.6993 178.164 28.2104L178.182 24.5245Z" fill="black"/>
<path d="M185.801 25.3234H183.914V24.5245H188.592V25.3234H186.713V30.5799H185.801V25.3234Z" fill="black"/>
<path d="M189.202 24.5245H190.114V28.1741C190.114 29.2091 190.688 29.8718 191.755 29.8718C192.822 29.8718 193.387 29.2091 193.387 28.1741V24.5245H194.299V28.2013C194.299 29.7144 193.451 30.6889 191.746 30.6889C190.041 30.6889 189.184 29.6993 189.184 28.2104L189.202 24.5245Z" fill="black"/>
<path d="M197.53 28.2466H196.39V30.5798H195.478V24.5275H198.04C199.198 24.5275 199.991 25.2719 199.991 26.3886C200.015 26.8215 199.87 27.2467 199.587 27.5763C199.304 27.9058 198.905 28.1144 198.472 28.1589L200.031 30.5798H198.967L197.53 28.2466ZM197.922 25.3233H196.402V27.4417H197.922C198.071 27.4576 198.222 27.442 198.365 27.3961C198.507 27.3501 198.639 27.2747 198.751 27.1748C198.862 27.0749 198.951 26.9527 199.013 26.8162C199.074 26.6797 199.105 26.532 199.105 26.3825C199.105 26.2331 199.074 26.0853 199.013 25.9488C198.951 25.8123 198.862 25.6901 198.751 25.5902C198.639 25.4903 198.507 25.4149 198.365 25.369C198.222 25.323 198.071 25.3074 197.922 25.3233Z" fill="black"/>
<path d="M200.891 24.5245H204.976V25.3234H201.803V27.0938H204.912V27.8927H201.803V29.781H204.976V30.5799H200.891V24.5245Z" fill="black"/>
</g>
<defs>
<clipPath id="clip0_1_20">
<rect width="209" height="40" fill="white" transform="translate(0.553223 0.911255)"/>
</clipPath>
</defs>
</svg>
