<svg width="17" height="21" viewBox="0 0 17 21" fill="none" xmlns="http://www.w3.org/2000/svg">
<path d="M16.0938 5.08366V18.8337C16.0938 19.1652 15.9555 19.4831 15.7093 19.7175C15.4632 19.952 15.1293 20.0837 14.7812 20.0837H2.53125C2.18315 20.0837 1.84931 19.952 1.60317 19.7175C1.35703 19.4831 1.21875 19.1652 1.21875 18.8337V2.16699C1.21875 1.83547 1.35703 1.51753 1.60317 1.28311C1.84931 1.04869 2.18315 0.916992 2.53125 0.916992H11.7188L16.0938 5.08366Z" stroke="white" stroke-linecap="round" stroke-linejoin="round"/>
<path d="M11.7188 0.916992V3.83366C11.7188 4.16518 11.857 4.48312 12.1032 4.71754C12.3493 4.95196 12.6832 5.08366 13.0312 5.08366H16.0938" stroke="white" stroke-linecap="round" stroke-linejoin="round"/>
<path d="M8.21875 7.58398C7.5975 7.58398 7.34375 8.04232 7.34375 8.87565C7.34375 10.0007 8.875 11.5423 9.53125 12.209C10.1875 12.8757 12.1562 14.2923 12.5938 14.2923C13.285 14.2923 13.4688 14.0257 13.4688 13.609C13.4688 13.1923 12.8038 13.0007 12.1562 13.0007C10.3494 13.159 8.57877 13.5806 6.90625 14.2507C5.15625 15.084 3.84375 15.5007 3.84375 16.2007C3.84375 16.5173 4.28125 16.7507 4.71875 16.7507C5.38375 16.7507 6.90625 15.5007 7.78125 13.0007C8.33585 11.6477 8.77478 10.2543 9.09375 8.83398C9.09375 7.58398 8.65625 7.58398 8.21875 7.58398Z" stroke="white" stroke-linecap="round" stroke-linejoin="round"/>
</svg>
