<svg width="117" height="117" viewBox="0 0 117 117" fill="none" xmlns="http://www.w3.org/2000/svg">
<path d="M58.5 89.5781L43.875 104.203H51.1875V115.172H65.8125V104.203H73.125L58.5 89.5781Z" fill="#0093D0"/>
<path d="M96.8906 80.4375L82.2656 95.0625H89.5781V115.172H104.203V95.0625H111.516L96.8906 80.4375Z" fill="#0093D0"/>
<path d="M20.1094 80.4375L5.48438 95.0625H12.7969V115.172H27.4219V95.0625H34.7344L20.1094 80.4375Z" fill="#0093D0"/>
<path d="M58.5 9.14062L61.3244 15.1588L67.6406 16.1241L63.0703 20.8077L64.1489 27.4219L58.5 24.2994L52.8511 27.4219L53.9297 20.8077L49.3594 16.1241L55.6755 15.1588L58.5 9.14062Z" fill="#FFE38F"/>
<path d="M58.5457 85.9237L58.5402 82.2674C59.7194 82.2656 60.9095 82.2108 62.0831 82.1011L62.4195 85.7427C61.1362 85.8615 59.8327 85.9219 58.5457 85.9237ZM54.6682 85.7482C53.3867 85.633 52.0924 85.4539 50.8237 85.2199L51.4873 81.6239C52.6463 81.8378 53.8273 82.0005 54.9973 82.1066L54.6682 85.7482ZM66.2604 85.2034L65.595 81.6075C66.7467 81.3954 67.9075 81.1212 69.041 80.7995L70.0428 84.3168C68.7978 84.6714 67.5255 84.9694 66.2604 85.2034ZM47.0413 84.3424C45.8055 83.9932 44.566 83.58 43.3595 83.1157L44.6739 79.7026C45.7763 80.1267 46.9079 80.5051 48.0376 80.8251L47.0413 84.3424ZM73.7228 83.0791L72.3992 79.6697C73.4979 79.2456 74.5857 78.7611 75.6368 78.2364L77.273 81.5069C76.1213 82.0828 74.9257 82.6111 73.7228 83.0791ZM39.8056 81.5472C38.6594 80.9768 37.5186 80.3424 36.4144 79.6624L38.334 76.5491C39.3449 77.1725 40.3869 77.752 41.4345 78.273L39.8056 81.5472ZM80.6605 79.6148L78.7319 76.5089C79.73 75.8891 80.7117 75.2145 81.6532 74.5034L83.8598 77.4174C82.8305 78.1962 81.7538 78.9366 80.6605 79.6148ZM33.2097 77.4686C32.1805 76.6917 31.175 75.858 30.2207 74.9933L32.6814 72.2877C33.5534 73.0811 34.4711 73.8416 35.4108 74.5491L33.2097 77.4686ZM86.8414 74.933L84.3789 72.2292C85.2473 71.4376 86.0882 70.5949 86.8835 69.7247L89.5873 72.1853C88.7171 73.1433 87.792 74.0665 86.8414 74.933ZM27.4712 72.253C26.601 71.3024 25.7656 70.3005 24.985 69.2713L27.899 67.0611C28.612 68.0008 29.3743 68.9167 30.1677 69.7814L27.4712 72.253ZM92.0644 69.2018L89.1485 66.9953C89.8578 66.0575 90.5324 65.0739 91.1521 64.0739L94.26 65.999C93.5817 67.0958 92.8432 68.1726 92.0644 69.2018ZM22.7821 66.0739C22.0984 64.9752 21.4604 63.8363 20.8845 62.6882L24.1532 61.0502C24.6779 62.0996 25.261 63.1398 25.8862 64.1416L22.7821 66.0739ZM96.1521 62.606L92.8815 60.9734C93.4044 59.9259 93.8852 58.8364 94.313 57.734L97.7224 59.0557C97.2526 60.2641 96.7243 61.4579 96.1521 62.606ZM19.3105 59.1398C18.8425 57.9388 18.4257 56.7011 18.0692 55.4617L21.5847 54.4544C21.9083 55.5841 22.2885 56.7139 22.7163 57.8108L19.3105 59.1398ZM98.9546 55.3739L95.4373 54.3776C95.7572 53.246 96.0296 52.0851 96.2435 50.9279L99.8394 51.5952C99.6036 52.8639 99.3056 54.1344 98.9546 55.3739ZM17.1771 51.6829C16.9394 50.416 16.7584 49.1217 16.6378 47.8365L20.2776 47.4965C20.3872 48.6683 20.5518 49.8475 20.7712 51.0065L17.1771 51.6829ZM100.371 47.7506L96.7297 47.4179C96.8358 46.2479 96.8906 45.056 96.8906 43.875L99.4061 43.7598L100.547 43.8439C100.547 45.1657 100.488 46.4691 100.371 47.7506ZM16.4531 43.9591V43.875C16.4531 42.6154 16.5098 41.3412 16.6213 40.089L20.2629 40.4144C20.1606 41.5569 20.1094 42.7233 20.1094 43.875L16.4531 43.9591ZM96.7151 40.173C96.6018 38.9921 96.4336 37.8111 96.216 36.663L99.8083 35.9812C100.048 37.2389 100.231 38.5314 100.357 39.8239L96.7151 40.173ZM20.7401 36.9044L17.1442 36.2444C17.3782 34.9702 17.6743 33.696 18.0217 32.4638L21.5408 33.4565C21.2227 34.579 20.954 35.7398 20.7401 36.9044ZM95.3916 33.217C95.0662 32.0891 94.6823 30.9611 94.2526 29.8624L97.6566 28.5279C98.1283 29.7308 98.5469 30.9684 98.9052 32.2042L95.3916 33.217ZM22.6578 30.0891L19.2465 28.7747C19.709 27.5736 20.2355 26.3762 20.8095 25.219L24.0837 26.8478C23.559 27.9008 23.0801 28.9904 22.6578 30.0891ZM92.8102 26.6266C92.2746 25.5645 91.6878 24.5261 91.0699 23.5408L94.1685 21.5993C94.845 22.6815 95.4866 23.8186 96.0735 24.9795L92.8102 26.6266ZM25.8022 23.7455L22.6925 21.8242C23.3671 20.7328 24.102 19.6542 24.879 18.6195L27.804 20.815C27.091 21.762 26.4182 22.7474 25.8022 23.7455ZM89.0535 20.6231C88.335 19.6816 87.569 18.7675 86.7756 17.9065L89.4666 15.4312C90.335 16.3745 91.1741 17.3745 91.9602 18.4056L89.0535 20.6231ZM30.0617 18.0875L27.3524 15.6305C28.2208 14.6744 29.1421 13.7475 30.0928 12.8791L32.5607 15.5756C31.6942 16.3672 30.8533 17.2118 30.0617 18.0875ZM84.2619 15.4093C83.3826 14.6159 82.4612 13.8554 81.5234 13.1534L83.719 10.2284C84.7446 10.9998 85.75 11.8298 86.7098 12.6963L84.2619 15.4093ZM35.2828 13.2978L33.069 10.3874C34.089 9.61228 35.1622 8.87006 36.2609 8.18269L38.2023 11.2814C37.195 11.9139 36.2133 12.5921 35.2828 13.2978ZM78.5947 11.157C77.5929 10.5391 76.5491 9.96328 75.4943 9.44227L77.114 6.16444C78.2712 6.73481 79.4137 7.36734 80.5125 8.04375L78.5947 11.157ZM41.2882 9.5483L39.6484 6.28144C40.8092 5.70009 42.003 5.16811 43.1931 4.70194L44.524 8.10773C43.4362 8.53186 42.3485 9.01631 41.2882 9.5483ZM72.2475 8.01633C71.1506 7.59769 70.0208 7.22109 68.8838 6.90483L69.8709 3.38386C71.1141 3.7312 72.3535 4.14253 73.5564 4.60322L72.2475 8.01633ZM47.8804 6.97064L46.8731 3.45881C48.1217 3.1005 49.3923 2.79886 50.65 2.56303L51.3264 6.1553C50.1784 6.36919 49.0193 6.64523 47.8804 6.97064ZM65.4304 6.10777C64.2787 5.89753 63.0996 5.73848 61.9223 5.63428L62.2422 1.99266C63.5328 2.106 64.8271 2.27967 66.0904 2.51184L65.4304 6.10777ZM54.8383 5.65622L54.4928 2.01825C55.7706 1.89759 57.0741 1.83178 58.3684 1.82812L58.3793 5.48437C57.1947 5.48803 56.0028 5.5447 54.8383 5.65622Z" fill="#858E99"/>
<path d="M63.9844 49.3594H53.0156C48.9773 49.3594 45.7031 52.6335 45.7031 56.6719V74.9531H71.2969V56.6719C71.2969 52.6335 68.0227 49.3594 63.9844 49.3594Z" fill="#759ACC"/>
<path d="M58.5 49.3594L54.8438 62.1562L58.5 67.6406L62.1562 62.1562L58.5 49.3594Z" fill="#E6E6E6"/>
<path d="M67.6406 40.2188C67.6406 40.6027 67.6223 40.9866 67.5492 41.3522C67.0191 45.8677 63.1617 49.3594 58.5 49.3594C53.8383 49.3594 49.9809 45.8677 49.4508 41.3522C49.3777 40.9866 49.3594 40.6027 49.3594 40.2188C49.3594 35.1731 53.4544 31.0781 58.5 31.0781C63.5456 31.0781 67.6406 35.1731 67.6406 40.2188Z" fill="#FFDBAC"/>
<path d="M58.5 31.0781C53.4544 31.0781 49.3594 35.1731 49.3594 40.2187C49.3594 40.6027 49.3777 40.9866 49.4508 41.3522C51.4069 38.4638 54.7341 36.5625 58.5 36.5625C62.2659 36.5625 65.5931 38.4638 67.5492 41.3522C67.6223 40.9866 67.6406 40.6027 67.6406 40.2187C67.6406 35.1731 63.5456 31.0781 58.5 31.0781Z" fill="#526273"/>
</svg>
