<svg width="84" height="84" viewBox="0 0 84 84" fill="none" xmlns="http://www.w3.org/2000/svg">
<path d="M9.7998 23.8001H13.9998L18.3538 13.8643C18.6898 13.0957 19.4486 12.6001 20.2872 12.6001C21.4548 12.6001 22.3998 13.5451 22.3998 14.7127V21.0001H28.3064C29.684 21.0001 30.7998 22.1159 30.7998 23.4935C30.7998 23.6979 30.7746 23.9009 30.7256 24.0983L28.8342 31.6625C28.3442 33.6239 26.5816 35.0001 24.56 35.0001H12.5998" stroke="#0093D0" stroke-width="2" stroke-miterlimit="10"/>
<path d="M20.2998 42C29.9648 42 37.7998 34.165 37.7998 24.5C37.7998 14.835 29.9648 7 20.2998 7C10.6348 7 2.7998 14.835 2.7998 24.5C2.7998 34.165 10.6348 42 20.2998 42Z" stroke="#0093D0" stroke-width="2" stroke-miterlimit="10"/>
<path d="M24.0952 68.6C25.6044 67.0964 26.5998 64.5218 26.5998 61.6V44.8" stroke="black" stroke-width="2" stroke-miterlimit="10"/>
<path d="M75.5997 12.6001H39.1997" stroke="black" stroke-width="2" stroke-miterlimit="10"/>
<path d="M64.4 23.8H42" stroke="black" stroke-width="2" stroke-miterlimit="10"/>
<path d="M60.1999 18.2H57.3999" stroke="black" stroke-width="2" stroke-miterlimit="10"/>
<path d="M54.5998 18.2H44.7998" stroke="black" stroke-width="2" stroke-miterlimit="10"/>
<path d="M43.3999 77H64.3999" stroke="black" stroke-width="2" stroke-miterlimit="10"/>
<path d="M44.7999 77.0001H20.9999C17.9073 77.0001 15.3999 74.4927 15.3999 71.4001V68.6001H58.7999V71.4001C58.7999 74.4927 61.3073 77.0001 64.3999 77.0001C67.4925 77.0001 69.9999 74.4927 69.9999 71.4001V18.2001C69.9999 15.1075 72.5073 12.6001 75.5999 12.6001C78.6925 12.6001 81.1999 15.1075 81.1999 18.2001V25.2001H74.1999" stroke="black" stroke-width="2" stroke-miterlimit="10"/>
<path d="M48.8484 35.791L51.7884 43.4H60.1884C61.0242 43.4 61.5996 44.0748 61.5996 44.8C61.5996 45.122 61.5128 45.4916 61.251 45.7324L55.126 50.8298L57.3156 58.2512C57.7524 59.4972 56.3902 60.6494 55.3738 60.0236L47.5884 54.6L39.831 59.9914C38.7306 60.7054 37.4482 59.4538 37.8892 58.219L40.0508 50.8312L33.9496 45.7338C33.6822 45.4832 33.5996 45.1206 33.5996 44.8C33.5996 44.0692 34.1736 43.4 35.0108 43.4H43.3884L46.3284 35.791C46.551 35.2744 47.0928 35 47.5884 35C48.0924 35 48.6258 35.2632 48.8484 35.791V35.791Z" stroke="black" stroke-width="2" stroke-miterlimit="10"/>
</svg>
